<svg version="1" xmlns="http://www.w3.org/2000/svg" width="192" height="56" viewBox="0 0 1920 560"><path d="M1007 542c-32-35-21-69 41-135 31-34 48-54 36-44-26 21-77 22-95 1-11-14-13-14-21 0-11 20-62 21-78 1-11-13-15-13-33 0-30 21-73 19-98-6l-21-21-15 22c-23 33-73 24-94-18l-17-32-17 26c-32 50-124 66-156 27-10-11-9-17 4-30s21-14 41-5c13 6 27 8 30 5 13-13 5-51-15-69-18-16-22-17-29-4-40 71-78 115-101 118-38 4-48-15-51-108l-3-85-21 45c-12 25-27 67-33 95-14 55-26 68-53 54-16-9-18-24-18-129 0-65 4-121 8-124 5-3 18-2 30 1 18 4 22 13 22 47l1 41 20-37c25-48 50-62 83-46 25 11 26 14 26 100 0 48 4 88 8 88 5 0 20-21 34-47 18-34 24-57 21-81-6-39 18-72 54-72 29 0 39 23 24 57-11 24-9 28 24 55 20 17 35 39 35 51 1 21 1 21 15-3 8-15 14-53 15-92v-68h-30c-16 0-30-4-30-9 0-27 15-41 41-41 16 0 28-3 28-8-1-4-1-20 0-35 1-25 4-28 29-25 23 3 27 8 30 40 3 37 4 38 43 38 28 0 39 4 39 15 0 17-30 35-59 35-20 0-21 6-21 101 0 90 2 100 17 97 20-4 30-30 38-100 8-60 45-108 84-108 15 0 31 3 35 7s19 7 34 8h27l5 97c3 53 8 99 12 103 16 16 28-10 28-61 0-95 43-163 97-150 15 4 42 8 58 9l30 2 5 80 5 80 22-50c13-31 18-54 12-60-14-14-11-42 7-59 21-22 45-20 51 4 5 17 11 19 37 14 47-8 56 8 43 82-11 65-4 118 16 111 7-2 13-23 15-48 4-78 12-108 38-139 24-28 61-39 78-23 3 4 21 7 39 7l32 1 5 99c3 61 9 101 16 103 19 6 34-54 34-133 0-40 4-76 10-79 17-10 50 15 50 38 1 18 3 16 15-10 16-37 14-37 49-23 23 8 26 16 27 57v48l15-46c19-62 36-76 69-55 22 15 24 23 27 108 3 92 19 128 31 68 9-40 27-38 27 3 0 62-44 90-86 53-22-18-28-34-33-87l-7-64-14 74c-16 79-24 90-54 68-13-10-19-32-24-83l-5-69-13 35c-7 19-13 59-13 88-1 42-4 52-18 53-29 2-48-2-51-12-2-5-14-2-26 6-21 14-25 13-50-6-25-20-28-20-45-5-21 19-72 21-89 4-9-9-15-9-24 0-19 19-63 14-84-9-15-17-19-36-19-95 0-52-4-74-12-74-7 0-15 11-19 25-3 14-23 52-44 84-33 52-38 66-41 134-4 63-8 80-28 101-30 32-89 36-114 8zm70-24c10-12 26-108 19-108-10 0-56 80-56 98 0 24 22 29 37 10zM848 315c13-28 16-103 6-129-9-22-31-20-44 5-12 22-16 122-5 139 11 18 31 11 43-15zm229-6c15-28 17-107 4-128-14-23-39-5-50 36-14 47-14 65-1 98 12 31 30 29 47-6zm400 0c17-33 16-101-1-125-13-17-16-17-30-4-34 33-28 169 7 158 6-3 18-15 24-29zM87 238l2-193-19 40c-20 39-21 72-5 123 9 29-13 30-43 2-25-23-30-86-11-123C31 48 83 0 106 0c54 0 54 1 54 164 0 83-5 169-10 191-8 35-39 75-59 75-3 0-5-87-4-192z" id="layer101" fill="#1c1c1c"/></svg>