<svg xmlns="http://www.w3.org/2000/svg" xmlns:xlink="http://www.w3.org/1999/xlink"><symbol id="icon-cart" viewBox="0 0 24 24">
<title>shopping-cart</title>
<path fill="currentColor" d="M20.756 5.345c-0.191-0.219-0.466-0.345-0.756-0.345h-13.819l-0.195-1.164c-0.080-0.482-0.497-0.836-0.986-0.836h-2.25c-0.553 0-1 0.447-1 1s0.447 1 1 1h1.403l1.86 11.164c0.008 0.045 0.031 0.082 0.045 0.124 0.016 0.053 0.029 0.103 0.054 0.151 0.032 0.066 0.075 0.122 0.12 0.179 0.031 0.039 0.059 0.078 0.095 0.112 0.058 0.054 0.125 0.092 0.193 0.13 0.038 0.021 0.071 0.049 0.112 0.065 0.116 0.047 0.238 0.075 0.367 0.075 0.001 0 11.001 0 11.001 0 0.553 0 1-0.447 1-1s-0.447-1-1-1h-10.153l-0.166-1h11.319c0.498 0 0.92-0.366 0.99-0.858l1-7c0.041-0.288-0.045-0.579-0.234-0.797zM18.847 7l-0.285 2h-3.562v-2h3.847zM14 7v2h-3v-2h3zM14 10v2h-3v-2h3zM10 7v2h-3c-0.053 0-0.101 0.015-0.148 0.030l-0.338-2.030h3.486zM7.014 10h2.986v2h-2.653l-0.333-2zM15 12v-2h3.418l-0.285 2h-3.133z"/>
<path fill="currentColor" d="M10 19.5c0 0.828-0.672 1.5-1.5 1.5s-1.5-0.672-1.5-1.5c0-0.828 0.672-1.5 1.5-1.5s1.5 0.672 1.5 1.5z"/>
<path fill="currentColor" d="M19 19.5c0 0.828-0.672 1.5-1.5 1.5s-1.5-0.672-1.5-1.5c0-0.828 0.672-1.5 1.5-1.5s1.5 0.672 1.5 1.5z"/>
</symbol><symbol id="icon-facebook" viewBox="0 0 408.788 408.788">
<path style="fill:#475993;" d="M353.701,0H55.087C24.665,0,0.002,24.662,0.002,55.085v298.616c0,30.423,24.662,55.085,55.085,55.085
	h147.275l0.251-146.078h-37.951c-4.932,0-8.935-3.988-8.954-8.92l-0.182-47.087c-0.019-4.959,3.996-8.989,8.955-8.989h37.882
	v-45.498c0-52.8,32.247-81.55,79.348-81.55h38.65c4.945,0,8.955,4.009,8.955,8.955v39.704c0,4.944-4.007,8.952-8.95,8.955
	l-23.719,0.011c-25.615,0-30.575,12.172-30.575,30.035v39.389h56.285c5.363,0,9.524,4.683,8.892,10.009l-5.581,47.087
	c-0.534,4.506-4.355,7.901-8.892,7.901h-50.453l-0.251,146.078h87.631c30.422,0,55.084-24.662,55.084-55.084V55.085
	C408.786,24.662,384.124,0,353.701,0z"/>
<g>
</g>
<g>
</g>
<g>
</g>
<g>
</g>
<g>
</g>
<g>
</g>
<g>
</g>
<g>
</g>
<g>
</g>
<g>
</g>
<g>
</g>
<g>
</g>
<g>
</g>
<g>
</g>
<g>
</g>
</symbol><symbol id="icon-instagram-word" viewBox="0 0 1920 560" preserveAspectRatio="xMidYMid meet">
<g id="layer101" fill="#1c1c1c" stroke="none">
 <path d="M1007 542 c-32 -35 -21 -69 41 -135 31 -34 48 -54 36 -44 -26 21 -77 22 -95 1 -11 -14 -13 -14 -21 0 -11 20 -62 21 -78 1 -11 -13 -15 -13 -33 0 -30 21 -73 19 -98 -6 l-21 -21 -15 22 c-23 33 -73 24 -94 -18 l-17 -32 -17 26 c-32 50 -124 66 -156 27 -10 -11 -9 -17 4 -30 13 -13 21 -14 41 -5 13 6 27 8 30 5 13 -13 5 -51 -15 -69 -18 -16 -22 -17 -29 -4 -40 71 -78 115 -101 118 -38 4 -48 -15 -51 -108 l-3 -85 -21 45 c-12 25 -27 67 -33 95 -14 55 -26 68 -53 54 -16 -9 -18 -24 -18 -129 0 -65 4 -121 8 -124 5 -3 18 -2 30 1 18 4 22 13 22 47 l1 41 20 -37 c25 -48 50 -62 83 -46 25 11 26 14 26 100 0 48 4 88 8 88 5 0 20 -21 34 -47 18 -34 24 -57 21 -81 -6 -39 18 -72 54 -72 29 0 39 23 24 57 -11 24 -9 28 24 55 20 17 35 39 35 51 1 21 1 21 15 -3 8 -15 14 -53 15 -92 l0 -68 -30 0 c-16 0 -30 -4 -30 -9 0 -27 15 -41 41 -41 16 0 28 -3 28 -8 -1 -4 -1 -20 0 -35 1 -25 4 -28 29 -25 23 3 27 8 30 40 3 37 4 38 43 38 28 0 39 4 39 15 0 17 -30 35 -59 35 -20 0 -21 6 -21 101 0 90 2 100 17 97 20 -4 30 -30 38 -100 8 -60 45 -108 84 -108 15 0 31 3 35 7 4 4 19 7 34 8 l27 0 5 97 c3 53 8 99 12 103 16 16 28 -10 28 -61 0 -95 43 -163 97 -150 15 4 42 8 58 9 l30 2 5 80 5 80 22 -50 c13 -31 18 -54 12 -60 -14 -14 -11 -42 7 -59 21 -22 45 -20 51 4 5 17 11 19 37 14 47 -8 56 8 43 82 -11 65 -4 118 16 111 7 -2 13 -23 15 -48 4 -78 12 -108 38 -139 24 -28 61 -39 78 -23 3 4 21 7 39 7 l32 1 5 99 c3 61 9 101 16 103 19 6 34 -54 34 -133 0 -40 4 -76 10 -79 17 -10 50 15 50 38 1 18 3 16 15 -10 16 -37 14 -37 49 -23 23 8 26 16 27 57 l0 48 15 -46 c19 -62 36 -76 69 -55 22 15 24 23 27 108 3 92 19 128 31 68 9 -40 27 -38 27 3 0 62 -44 90 -86 53 -22 -18 -28 -34 -33 -87 l-7 -64 -14 74 c-16 79 -24 90 -54 68 -13 -10 -19 -32 -24 -83 l-5 -69 -13 35 c-7 19 -13 59 -13 88 -1 42 -4 52 -18 53 -29 2 -48 -2 -51 -12 -2 -5 -14 -2 -26 6 -21 14 -25 13 -50 -6 -25 -20 -28 -20 -45 -5 -21 19 -72 21 -89 4 -9 -9 -15 -9 -24 0 -19 19 -63 14 -84 -9 -15 -17 -19 -36 -19 -95 0 -52 -4 -74 -12 -74 -7 0 -15 11 -19 25 -3 14 -23 52 -44 84 -33 52 -38 66 -41 134 -4 63 -8 80 -28 101 -30 32 -89 36 -114 8z m70 -24 c10 -12 26 -108 19 -108 -10 0 -56 80 -56 98 0 24 22 29 37 10z m-229 -203 c13 -28 16 -103 6 -129 -9 -22 -31 -20 -44 5 -12 22 -16 122 -5 139 11 18 31 11 43 -15z m229 -6 c15 -28 17 -107 4 -128 -14 -23 -39 -5 -50 36 -14 47 -14 65 -1 98 12 31 30 29 47 -6z m400 0 c17 -33 16 -101 -1 -125 -13 -17 -16 -17 -30 -4 -34 33 -28 169 7 158 6 -3 18 -15 24 -29z"/>
 <path d="M87 238 l2 -193 -19 40 c-20 39 -21 72 -5 123 9 29 -13 30 -43 2 -25 -23 -30 -86 -11 -123 20 -39 72 -87 95 -87 54 0 54 1 54 164 0 83 -5 169 -10 191 -8 35 -39 75 -59 75 -3 0 -5 -87 -4 -192z"/>
 </g>

</symbol><symbol id="icon-instagram" viewBox="0 0 551.034 551.034">
<g>
	
		<linearGradient id="SVGID_1_" gradientUnits="userSpaceOnUse" x1="275.517" y1="4.57" x2="275.517" y2="549.72" gradientTransform="matrix(1 0 0 -1 0 554)">
		<stop offset="0" style="stop-color:#E09B3D"/>
		<stop offset="0.3" style="stop-color:#C74C4D"/>
		<stop offset="0.6" style="stop-color:#C21975"/>
		<stop offset="1" style="stop-color:#7024C4"/>
	</linearGradient>
	<path style="fill:url(#SVGID_1_);" d="M386.878,0H164.156C73.64,0,0,73.64,0,164.156v222.722
		c0,90.516,73.64,164.156,164.156,164.156h222.722c90.516,0,164.156-73.64,164.156-164.156V164.156
		C551.033,73.64,477.393,0,386.878,0z M495.6,386.878c0,60.045-48.677,108.722-108.722,108.722H164.156
		c-60.045,0-108.722-48.677-108.722-108.722V164.156c0-60.046,48.677-108.722,108.722-108.722h222.722
		c60.045,0,108.722,48.676,108.722,108.722L495.6,386.878L495.6,386.878z"/>
	
		<linearGradient id="SVGID_2_" gradientUnits="userSpaceOnUse" x1="275.517" y1="4.57" x2="275.517" y2="549.72" gradientTransform="matrix(1 0 0 -1 0 554)">
		<stop offset="0" style="stop-color:#E09B3D"/>
		<stop offset="0.3" style="stop-color:#C74C4D"/>
		<stop offset="0.6" style="stop-color:#C21975"/>
		<stop offset="1" style="stop-color:#7024C4"/>
	</linearGradient>
	<path style="fill:url(#SVGID_2_);" d="M275.517,133C196.933,133,133,196.933,133,275.516s63.933,142.517,142.517,142.517
		S418.034,354.1,418.034,275.516S354.101,133,275.517,133z M275.517,362.6c-48.095,0-87.083-38.988-87.083-87.083
		s38.989-87.083,87.083-87.083c48.095,0,87.083,38.988,87.083,87.083C362.6,323.611,323.611,362.6,275.517,362.6z"/>
	
		<linearGradient id="SVGID_3_" gradientUnits="userSpaceOnUse" x1="418.31" y1="4.57" x2="418.31" y2="549.72" gradientTransform="matrix(1 0 0 -1 0 554)">
		<stop offset="0" style="stop-color:#E09B3D"/>
		<stop offset="0.3" style="stop-color:#C74C4D"/>
		<stop offset="0.6" style="stop-color:#C21975"/>
		<stop offset="1" style="stop-color:#7024C4"/>
	</linearGradient>
	<circle style="fill:url(#SVGID_3_);" cx="418.31" cy="134.07" r="34.15"/>
</g>
<g>
</g>
<g>
</g>
<g>
</g>
<g>
</g>
<g>
</g>
<g>
</g>
<g>
</g>
<g>
</g>
<g>
</g>
<g>
</g>
<g>
</g>
<g>
</g>
<g>
</g>
<g>
</g>
<g>
</g>
</symbol><symbol id="icon-phone" viewBox="0 0 512 512">
<g>
	<path d="M256,32c123.5,0,224,100.5,224,224S379.5,480,256,480S32,379.5,32,256S132.5,32,256,32 M256,0C114.625,0,0,114.625,0,256   s114.625,256,256,256s256-114.625,256-256S397.375,0,256,0L256,0z M398.719,341.594l-1.438-4.375   c-3.375-10.062-14.5-20.562-24.75-23.375L334.688,303.5c-10.25-2.781-24.875,0.969-32.405,8.5l-13.688,13.688   c-49.75-13.469-88.781-52.5-102.219-102.25l13.688-13.688c7.5-7.5,11.25-22.125,8.469-32.406L198.219,139.5   c-2.781-10.25-13.344-21.375-23.406-24.75l-4.313-1.438c-10.094-3.375-24.5,0.031-32,7.563l-20.5,20.5   c-3.656,3.625-6,14.031-6,14.063c-0.688,65.063,24.813,127.719,70.813,173.75c45.875,45.875,108.313,71.345,173.156,70.781   c0.344,0,11.063-2.281,14.719-5.938l20.5-20.5C398.688,366.062,402.062,351.656,398.719,341.594z" fill="currentColor"/>
</g>
<g>
</g>
<g>
</g>
<g>
</g>
<g>
</g>
<g>
</g>
<g>
</g>
<g>
</g>
<g>
</g>
<g>
</g>
<g>
</g>
<g>
</g>
<g>
</g>
<g>
</g>
<g>
</g>
<g>
</g>
</symbol><symbol id="icon-vk" viewBox="0 0 512 512">
<path style="fill:#436EAB;" d="M440.649,295.361c16.984,16.582,34.909,32.182,50.142,50.436
	c6.729,8.112,13.099,16.482,17.973,25.896c6.906,13.382,0.651,28.108-11.348,28.907l-74.59-0.034
	c-19.238,1.596-34.585-6.148-47.489-19.302c-10.327-10.519-19.891-21.714-29.821-32.588c-4.071-4.444-8.332-8.626-13.422-11.932
	c-10.182-6.609-19.021-4.586-24.84,6.034c-5.926,10.802-7.271,22.762-7.853,34.8c-0.799,17.564-6.108,22.182-23.751,22.986
	c-37.705,1.778-73.489-3.926-106.732-22.947c-29.308-16.768-52.034-40.441-71.816-67.24
	C58.589,258.194,29.094,200.852,2.586,141.904c-5.967-13.281-1.603-20.41,13.051-20.663c24.333-0.473,48.663-0.439,73.025-0.034
	c9.89,0.145,16.437,5.817,20.256,15.16c13.165,32.371,29.274,63.169,49.494,91.716c5.385,7.6,10.876,15.201,18.694,20.55
	c8.65,5.923,15.236,3.96,19.305-5.676c2.582-6.11,3.713-12.691,4.295-19.234c1.928-22.513,2.182-44.988-1.199-67.422
	c-2.076-14.001-9.962-23.065-23.933-25.714c-7.129-1.351-6.068-4.004-2.616-8.073c5.995-7.018,11.634-11.387,22.875-11.387h84.298
	c13.271,2.619,16.218,8.581,18.035,21.934l0.072,93.637c-0.145,5.169,2.582,20.51,11.893,23.931
	c7.452,2.436,12.364-3.526,16.836-8.251c20.183-21.421,34.588-46.737,47.457-72.951c5.711-11.527,10.622-23.497,15.381-35.458
	c3.526-8.875,9.059-13.242,19.056-13.049l81.132,0.072c2.406,0,4.84,0.035,7.17,0.434c13.671,2.33,17.418,8.211,13.195,21.561
	c-6.653,20.945-19.598,38.4-32.255,55.935c-13.53,18.721-28.001,36.802-41.418,55.634
	C424.357,271.756,425.336,280.424,440.649,295.361L440.649,295.361z"/>
<g>
</g>
<g>
</g>
<g>
</g>
<g>
</g>
<g>
</g>
<g>
</g>
<g>
</g>
<g>
</g>
<g>
</g>
<g>
</g>
<g>
</g>
<g>
</g>
<g>
</g>
<g>
</g>
<g>
</g>
</symbol><symbol id="icon-whatsapp" viewBox="0 0 418.135 418.135">
<g>
	<path style="fill:#7AD06D;" d="M198.929,0.242C88.5,5.5,1.356,97.466,1.691,208.02c0.102,33.672,8.231,65.454,22.571,93.536
		L2.245,408.429c-1.191,5.781,4.023,10.843,9.766,9.483l104.723-24.811c26.905,13.402,57.125,21.143,89.108,21.631
		c112.869,1.724,206.982-87.897,210.5-200.724C420.113,93.065,320.295-5.538,198.929,0.242z M323.886,322.197
		c-30.669,30.669-71.446,47.559-114.818,47.559c-25.396,0-49.71-5.698-72.269-16.935l-14.584-7.265l-64.206,15.212l13.515-65.607
		l-7.185-14.07c-11.711-22.935-17.649-47.736-17.649-73.713c0-43.373,16.89-84.149,47.559-114.819
		c30.395-30.395,71.837-47.56,114.822-47.56C252.443,45,293.218,61.89,323.887,92.558c30.669,30.669,47.559,71.445,47.56,114.817
		C371.446,250.361,354.281,291.803,323.886,322.197z"/>
	<path style="fill:#7AD06D;" d="M309.712,252.351l-40.169-11.534c-5.281-1.516-10.968-0.018-14.816,3.903l-9.823,10.008
		c-4.142,4.22-10.427,5.576-15.909,3.358c-19.002-7.69-58.974-43.23-69.182-61.007c-2.945-5.128-2.458-11.539,1.158-16.218
		l8.576-11.095c3.36-4.347,4.069-10.185,1.847-15.21l-16.9-38.223c-4.048-9.155-15.747-11.82-23.39-5.356
		c-11.211,9.482-24.513,23.891-26.13,39.854c-2.851,28.144,9.219,63.622,54.862,106.222c52.73,49.215,94.956,55.717,122.449,49.057
		c15.594-3.777,28.056-18.919,35.921-31.317C323.568,266.34,319.334,255.114,309.712,252.351z"/>
</g>
<g>
</g>
<g>
</g>
<g>
</g>
<g>
</g>
<g>
</g>
<g>
</g>
<g>
</g>
<g>
</g>
<g>
</g>
<g>
</g>
<g>
</g>
<g>
</g>
<g>
</g>
<g>
</g>
<g>
</g>
</symbol><symbol id="icon-arrow" viewBox="0 0 860 160" preserveAspectRatio="xMidYMid meet">
<g id="layer101" fill="#c2c2c2" stroke="none">
 <path d="M265 150 c-33 -4 -78 -13 -100 -20 -49 -16 -165 -79 -165 -89 0 -21 19 -18 74 13 97 53 154 66 317 67 138 0 205 -7 290 -33 33 -9 38 -14 33 -33 -5 -20 -1 -23 33 -29 21 -4 51 -12 66 -18 48 -19 51 2 10 71 -36 61 -37 62 -53 41 -15 -20 -17 -20 -65 -5 -130 41 -286 53 -440 35z"/>
 </g>

</symbol></svg>